<svg width="801" height="527" viewBox="0 0 801 527" fill="none" xmlns="http://www.w3.org/2000/svg">
<path d="M400.5 0C621.69 0 801 179.31 801 400.5C801 621.69 702.19 400.5 481 400.5C259.81 400.5 0 621.69 0 400.5C0 179.31 179.31 0 400.5 0Z" fill="url(#paint0_linear_2_57)"/>
<path d="M454.808 237.592H238.595V287.657H454.808V237.592Z" fill="#565661"/>
<path opacity="0.1" d="M454.808 237.592H238.595V287.657H454.808V237.592Z" fill="black"/>
<path d="M264.463 289.305L265.981 422.963L245.181 475.463L243.576 289.305H264.463Z" fill="#BCBEC9"/>
<path d="M240.876 247.204L451.386 248.47V285.758H240.876V247.204Z" fill="#565661"/>
<path d="M433.372 289.305L451.383 291.845V473.433L433.372 417.89V289.305Z" fill="#BCBEC9"/>
<path d="M559.676 239.598H458.225V455.178H559.676V239.598Z" fill="#EFEFF0"/>
<path d="M551.559 245.587H466.342V411.3H551.559V245.587Z" fill="#565661"/>
<path opacity="0.1" d="M551.559 245.587H466.342V411.3H551.559V245.587Z" fill="black"/>
<path d="M551.559 248.981H466.342V285.758H551.559V248.981Z" fill="#565661"/>
<path d="M551.559 289.305H466.342V367.42H551.559V289.305Z" fill="#565661"/>
<path d="M551.559 372.242H466.342V450.357H551.559V372.242Z" fill="#565661"/>
<path opacity="0.1" d="M551.559 372.242H466.342V450.357H551.559V372.242Z" fill="black"/>
<path d="M469.896 469.214C472.929 469.214 475.388 466.072 475.388 462.196C475.388 458.32 472.929 455.178 469.896 455.178C466.863 455.178 464.404 458.32 464.404 462.196C464.404 466.072 466.863 469.214 469.896 469.214Z" fill="#565661"/>
<path d="M546.066 469.55C549.099 469.55 551.558 466.408 551.558 462.532C551.558 458.656 549.099 455.514 546.066 455.514C543.033 455.514 540.574 458.656 540.574 462.532C540.574 466.408 543.033 469.55 546.066 469.55Z" fill="#565661"/>
<path d="M237.832 475.462H245.186L243.164 241.467H231.996L237.832 475.462Z" fill="#EFEFF0"/>
<path d="M451.382 239.599V473.429H458.225V241.468L451.382 239.599Z" fill="#EFEFF0"/>
<path d="M243.523 283.47V291.846H451.383V285.759L243.523 283.47Z" fill="#EFEFF0"/>
<path d="M257.613 223.876H521.129L559.424 236.554V243.908L230.73 241.376V233.893L257.613 223.876Z" fill="white"/>
<path d="M230.73 233.892L559.424 236.554V243.908L230.73 241.375V233.892Z" fill="#BCBEC9"/>
<path d="M260.503 321.101L258.977 320.872V320.681C258.931 320.322 258.877 319.972 258.824 319.613C259.45 320.113 260.045 320.605 260.594 321.101H260.503Z" fill="url(#paint1_linear_2_57)"/>
<path d="M227.35 438.891C228.342 438.662 229.35 438.471 230.356 438.334C237.272 437.349 244.325 438.388 250.663 441.324C250.022 446.038 249.389 450.913 250.747 455.467C251.693 458.667 253.592 461.567 253.997 464.911C255.016 465.086 255.965 465.542 256.74 466.226C257.515 466.91 258.084 467.797 258.383 468.786C258.676 469.661 258.823 470.579 258.818 471.502C258.81 472.644 258.666 473.781 258.391 474.889C258.298 475.774 257.864 476.589 257.18 477.158C256.496 477.728 255.617 478.009 254.729 477.94C248.829 478.611 243.035 476.285 237.542 474.004L226.862 469.564C225.611 469.045 224.352 468.519 223.155 467.878C220.883 466.651 218.866 465.002 217.212 463.019C216.862 462.665 216.617 462.221 216.503 461.737C216.303 460.394 217.876 459.593 218.875 458.686C219.168 458.409 219.424 458.096 219.638 457.755C220.82 455.97 220.938 453.506 221.644 451.401C223.322 446.401 228.51 443.185 230.344 438.311C230.444 438.044 230.535 437.777 230.611 437.502" fill="#A26565"/>
<path opacity="0.1" d="M258.818 471.503C258.81 472.645 258.666 473.782 258.391 474.89C258.298 475.775 257.863 476.589 257.18 477.159C256.496 477.729 255.617 478.009 254.729 477.941C248.829 478.612 243.035 476.286 237.542 474.005L226.862 469.565C225.611 469.046 224.352 468.52 223.155 467.879C220.883 466.652 218.866 465.003 217.212 463.02C216.863 462.666 216.617 462.223 216.503 461.739C216.303 460.396 217.876 459.595 218.875 458.688C219.168 458.411 219.424 458.098 219.638 457.757C222.583 458.39 226.238 460.244 228.487 460.957C230.741 461.571 232.905 462.476 234.925 463.65C237.732 465.45 239.754 468.227 242.134 470.515C244.514 472.803 247.588 474.886 250.907 474.604C252.662 474.34 254.353 473.755 255.896 472.88L258.818 471.503Z" fill="black"/>
<path d="M246.315 363.095C246.513 363.787 246.495 364.524 246.262 365.206C246.03 365.887 245.595 366.482 245.015 366.909C244.015 367.527 242.726 367.443 241.735 368.114C240.507 368.976 240.335 370.685 240.118 372.165C239.355 377.253 236.83 381.865 234.671 386.545C232.512 391.225 230.689 396.325 231.482 401.405C232.024 404.853 233.717 408.53 232.13 411.635C231.741 412.398 231.161 413.077 230.719 413.817C228.545 417.448 229.781 422.048 229.697 426.274C229.728 426.743 229.624 427.212 229.397 427.624C229.064 428.014 228.653 428.331 228.192 428.555C227.418 429.125 226.782 429.861 226.332 430.711C225.882 431.56 225.629 432.5 225.592 433.46C225.528 435.381 225.76 437.3 226.279 439.151C226.363 439.898 226.693 440.595 227.217 441.134C227.824 441.536 228.541 441.738 229.269 441.714C234.062 442.102 238.763 443.245 243.199 445.101C246.09 446.306 248.899 447.817 251.972 448.401C252.269 448.493 252.582 448.524 252.892 448.491C253.201 448.458 253.501 448.363 253.772 448.21C254.159 447.861 254.426 447.399 254.535 446.89C255.717 442.999 256.915 438.99 256.511 434.944C256.336 433.205 255.87 431.504 255.748 429.764C255.214 422.898 259.86 416.704 261.332 409.93C261.996 406.879 261.996 403.72 262.469 400.639C263.751 392.194 268.404 384.619 270.197 376.266C270.447 374.709 270.835 373.177 271.357 371.689C272.692 368.455 275.781 365.83 275.85 362.329C275.892 361.559 275.689 360.795 275.27 360.147C274.551 359.358 273.596 358.822 272.547 358.621C268.403 357.481 264.184 356.629 259.922 356.073C257.969 355.689 255.975 355.551 253.987 355.661C251.406 355.965 248.925 356.84 246.725 358.224C243.779 360.036 245.674 360.471 246.315 363.095Z" fill="#454B69"/>
<path opacity="0.05" d="M246.315 363.095C246.513 363.787 246.495 364.524 246.262 365.206C246.03 365.887 245.595 366.482 245.015 366.909C244.015 367.527 242.726 367.443 241.735 368.114C240.507 368.976 240.335 370.685 240.118 372.165C239.355 377.253 236.83 381.865 234.671 386.545C232.512 391.225 230.689 396.325 231.482 401.405C232.024 404.853 233.717 408.53 232.13 411.635C231.741 412.398 231.161 413.077 230.719 413.817C228.545 417.448 229.781 422.048 229.697 426.274C229.728 426.743 229.624 427.212 229.397 427.624C229.064 428.014 228.653 428.331 228.192 428.555C227.418 429.125 226.782 429.861 226.332 430.711C225.882 431.56 225.629 432.5 225.592 433.46C225.528 435.381 225.76 437.3 226.279 439.151C226.363 439.898 226.693 440.595 227.217 441.134C227.824 441.536 228.541 441.738 229.269 441.714C234.062 442.102 238.763 443.245 243.199 445.101C246.09 446.306 248.899 447.817 251.972 448.401C252.269 448.493 252.582 448.524 252.892 448.491C253.201 448.458 253.501 448.363 253.772 448.21C254.159 447.861 254.426 447.399 254.535 446.89C255.717 442.999 256.915 438.99 256.511 434.944C256.336 433.205 255.87 431.504 255.748 429.764C255.214 422.898 259.86 416.704 261.332 409.93C261.996 406.879 261.996 403.72 262.469 400.639C263.751 392.194 268.404 384.619 270.197 376.266C270.447 374.709 270.835 373.177 271.357 371.689C272.692 368.455 275.781 365.83 275.85 362.329C275.892 361.559 275.689 360.795 275.27 360.147C274.551 359.358 273.596 358.822 272.547 358.621C268.403 357.481 264.184 356.629 259.922 356.073C257.969 355.689 255.975 355.551 253.987 355.661C251.406 355.965 248.925 356.84 246.725 358.224C243.779 360.036 245.674 360.471 246.315 363.095Z" fill="black"/>
<path d="M231.386 478.063H224.875L220.618 390.611L220.318 385.637L225.849 383.692L226.223 388.978L231.386 478.063Z" fill="#565661"/>
<path opacity="0.1" d="M226.229 388.979L220.622 390.611L220.322 385.637L225.853 383.692L226.229 388.979Z" fill="black"/>
<path d="M313.033 496.562L302.3 497.862L252.852 385.637L239.517 384.661L216.098 391.496L211.544 525.108H200.808L205.034 386.614L179.334 387.27L133.475 501.437H123.718L171.953 368.008L173.814 362.866L245.697 360.402L263.616 370.449L263.845 371.029L313.033 496.562Z" fill="#565661"/>
<path opacity="0.1" d="M263.845 371.028C248.397 375.681 232.362 380.762 232.362 380.762C232.362 380.762 217.738 385.862 211.544 380.762C210.763 380.152 209.89 379.671 208.958 379.335C209.762 379.909 210.63 380.388 211.544 380.762L171.953 368L173.807 362.866L245.697 360.402L263.616 370.449L263.845 371.028Z" fill="black"/>
<path d="M190.726 348.883L219.996 342.376C219.996 342.376 289.934 355.39 295.136 360.593C295.136 360.593 239.189 371.975 233.01 375.85C226.831 379.725 190.07 384.012 190.726 348.883Z" fill="white"/>
<path d="M178.139 275.733C175.85 282.988 169.603 289.525 161.997 289.833C161.444 289.898 160.883 289.797 160.387 289.543C159.433 288.943 159.411 287.552 159.8 286.492C160.323 285.503 160.717 284.452 160.975 283.364C160.998 283.137 160.982 282.907 160.929 282.685C160.729 281.777 159.991 280.969 159.121 281.159C159.713 280.685 160.108 280.008 160.228 279.259C160.347 278.51 160.184 277.743 159.769 277.108C159.424 276.718 159.112 276.3 158.838 275.857C158.205 274.557 159.189 273.103 159.601 271.715C160.448 268.664 158.301 265.615 158.121 262.431C157.968 259.586 159.41 256.908 159.769 254.086C160.341 249.509 158.069 245.123 157.801 240.553C157.765 237.352 158.265 234.168 159.281 231.132C160.191 228.417 160.755 225.597 160.959 222.741C160.959 220.658 160.6 218.599 160.501 216.524C160.343 214.627 160.688 212.722 161.501 211.001C162.029 209.989 162.929 209.22 164.011 208.857C166.511 208.018 168.153 209.322 168.519 211.695C169.129 215.73 168.778 219.85 169.579 223.9C170.32 227.688 171.442 231.392 172.928 234.954C174.278 238.173 175.918 241.286 176.956 244.619C177.737 247.367 178.296 250.173 178.627 253.01C179.65 260.633 180.45 268.48 178.139 275.733Z" fill="#6C63FF"/>
<path d="M351.887 460.373C350.922 461.733 349.68 462.874 348.243 463.721C346.806 464.568 345.207 465.101 343.549 465.286C340.238 465.698 336.798 464.866 333.586 465.774C333.089 465.856 332.619 466.059 332.22 466.367C331.82 466.674 331.503 467.076 331.297 467.536C331.218 468.156 331.169 468.78 331.152 469.405C330.778 471.442 328.101 471.9 326.018 471.884L317.428 471.831C315.643 471.831 313.667 471.731 312.386 470.496C311.777 469.821 311.433 468.948 311.419 468.039C311.405 467.13 311.722 466.246 312.31 465.553C312.576 465.237 312.903 464.978 313.271 464.79C312.735 464.613 312.258 464.29 311.894 463.857C311.53 463.425 311.294 462.9 311.211 462.341C311.055 461.219 311.109 460.079 311.371 458.977C311.371 455.788 312.134 450.448 314.377 447.954C317.131 444.854 321.906 440.837 326.064 440.005C327.468 439.736 328.915 439.799 330.29 440.19C331.665 440.581 332.93 441.288 333.982 442.255C335.95 444.086 337.382 446.955 340.082 447.275C341.554 447.458 342.973 446.764 344.43 446.512C346.086 446.299 347.767 446.603 349.243 447.383C350.72 448.163 351.919 449.38 352.676 450.868C353.046 451.622 353.303 452.427 353.439 453.256C353.842 455.74 353.286 458.284 351.883 460.373H351.887Z" fill="#A26565"/>
<path opacity="0.1" d="M351.884 460.373C350.919 461.733 349.677 462.874 348.24 463.721C346.803 464.568 345.204 465.101 343.546 465.286C340.235 465.698 336.795 464.866 333.583 465.774C333.086 465.856 332.616 466.06 332.217 466.367C331.817 466.674 331.5 467.076 331.294 467.536C331.215 468.156 331.166 468.78 331.149 469.405C330.775 471.442 328.098 471.9 326.015 471.884L317.425 471.831C315.64 471.831 313.664 471.731 312.383 470.496C311.774 469.821 311.43 468.948 311.416 468.039C311.402 467.13 311.719 466.246 312.307 465.553C317.265 465.347 322.14 465.553 327.083 464.531C329.089 464.131 331.065 463.593 333.094 463.31C337.488 462.684 342.164 463.218 346.2 461.357C349.536 459.665 352.108 456.773 353.4 453.263C353.812 455.74 353.27 458.281 351.882 460.373H351.884Z" fill="black"/>
<path d="M329.22 448.312C326.169 450.677 322.591 452.523 318.746 452.721C314.901 452.919 310.82 451.195 308.936 447.854C306.182 442.949 308.623 436.129 305.251 431.628C304.198 430.217 302.68 429.217 301.566 427.852C300.452 426.487 299.811 424.435 300.803 422.985C299.603 423.443 298.339 422.285 297.988 421.047C297.805 419.783 297.691 418.51 297.645 417.233C297.088 413.915 293.831 411.786 292.267 408.842C290.703 405.898 290.917 402.076 290.741 398.589C290.352 390.095 287.191 381.963 281.741 375.437C280.704 374.201 279.376 372.942 277.759 373.003C278.041 370.211 276.18 367.541 273.769 366.137C271.262 364.854 268.511 364.12 265.698 363.986C237.526 361.209 208.172 371.686 181.274 362.872C173.79 360.423 166.574 356.327 161.997 349.904C160.214 347.459 158.939 344.683 158.246 341.738C157.553 338.792 157.456 335.738 157.962 332.755V332.648C159.022 327.232 161.883 325.897 166.62 323.425C172.089 320.534 177.805 318.137 183.7 316.262C195.143 312.684 207.463 311.395 219.271 314.019C224.786 315.255 230.103 317.299 235.626 318.497C237.8 318.97 239.989 319.306 242.194 319.588C245.619 320.015 249.06 320.297 252.508 320.694C263.533 321.964 274.391 324.406 284.898 327.979C288.865 329.173 292.635 330.941 296.089 333.227C298.75 335.16 301 337.602 302.708 340.413C304.415 343.224 305.547 346.346 306.036 349.598C306.356 351.841 306.364 354.175 306.852 356.349C307.315 358.176 307.927 359.962 308.683 361.689C315.201 377.805 320.528 394.378 324.619 411.274C324.851 412.529 325.281 413.739 325.893 414.859C326.869 416.438 328.548 417.498 329.532 419.078C331.821 422.801 329.616 427.996 331.645 431.871C332.345 433.214 333.514 434.271 334.216 435.617C336.501 440.02 333.126 445.284 329.22 448.312Z" fill="#454B69"/>
<path opacity="0.1" d="M290.24 360.662C291.324 359.804 292.26 358.773 293.009 357.611C293.761 356.443 294.059 355.04 293.848 353.667C294.145 355.403 294.031 357.185 293.516 358.869C293.001 360.554 292.098 362.094 290.881 363.367C288.966 365.328 285.373 367.25 282.574 366.579C282.97 364.337 288.463 362.173 290.24 360.662Z" fill="black"/>
<path opacity="0.1" d="M242.577 322.641C242.347 323.459 241.916 324.206 241.325 324.816C240.734 325.426 240 325.879 239.19 326.135C237.563 326.632 235.86 326.831 234.163 326.722H232.637C212.62 326.279 192.389 321.84 172.837 326.074C170.481 326.56 168.169 327.241 165.926 328.111C163.068 329.237 160.392 330.78 157.985 332.688V332.581C159.045 327.165 161.906 325.83 166.643 323.358C172.107 320.492 177.815 318.118 183.7 316.264C195.143 312.686 207.463 311.397 219.271 314.021C224.786 315.257 230.103 317.301 235.626 318.499C237.8 318.972 239.989 319.308 242.194 319.59C242.621 320.547 242.754 321.609 242.575 322.641H242.577Z" fill="black"/>
<path d="M242.577 321.55C242.348 322.369 241.919 323.118 241.327 323.729C240.736 324.341 240.001 324.794 239.19 325.05C237.564 325.548 235.86 325.745 234.163 325.63H232.637C212.62 325.187 192.389 320.748 172.837 324.982C170.482 325.469 168.17 326.147 165.926 327.011C162.933 328.204 160.141 329.851 157.649 331.893C157.064 330.286 156.482 328.676 155.902 327.064C155.202 325.142 157.428 324.714 157.855 322.99C158.137 321.823 157.655 320.495 157.413 319.252C157.35 318.948 157.31 318.639 157.291 318.329C157.154 315.575 158.138 313.988 160.391 312.501C167.091 308.077 175.259 305.04 182.903 302.759C186.967 301.474 191.165 300.66 195.414 300.333C201.425 299.982 207.429 301.096 213.28 302.507C220.474 304.284 227.591 306.634 233.968 310.395C237.096 312.218 240.147 314.507 241.833 317.757C242.506 318.899 242.767 320.237 242.573 321.548L242.577 321.55Z" fill="#A26565"/>
<path opacity="0.1" d="M178.139 275.734C175.85 282.989 169.603 289.526 161.997 289.834C161.444 289.899 160.883 289.798 160.387 289.544C159.433 288.944 159.411 287.553 159.8 286.493C160.323 285.504 160.717 284.453 160.975 283.365C160.998 283.138 160.982 282.908 160.929 282.686C164.964 276.995 168.878 271.243 170.429 264.507C170.742 263.347 170.838 262.14 170.711 260.945C170.37 259.604 169.942 258.286 169.429 257.001C168.758 254.651 169.07 252.165 169.261 249.731C170.055 239.016 168.266 228.266 164.043 218.386C162.868 216.066 162.007 213.601 161.48 211.055C162.008 210.043 162.908 209.274 163.99 208.911C166.49 208.072 168.132 209.376 168.498 211.749C169.108 215.784 168.757 219.904 169.558 223.955C170.297 227.745 171.418 231.451 172.904 235.016C174.254 238.235 175.894 241.348 176.932 244.681C177.713 247.429 178.272 250.235 178.603 253.072C179.65 260.637 180.451 268.48 178.139 275.734Z" fill="black"/>
<path opacity="0.1" d="M242.577 321.546C242.348 322.365 241.919 323.114 241.327 323.725C240.736 324.337 240.001 324.79 239.19 325.046C237.564 325.544 235.86 325.741 234.163 325.626H232.637C226.121 321.298 218.288 319.407 210.515 320.286C208.028 320.586 205.541 321.163 203.054 320.934C198.027 320.476 193.954 316.86 189.475 314.549C184.38 312.034 178.65 311.098 173.02 311.862C167.389 312.626 162.116 315.054 157.875 318.836L157.44 319.217C157.377 318.913 157.337 318.604 157.318 318.294C157.181 315.54 158.165 313.953 160.418 312.466C167.118 308.042 175.286 305.005 182.93 302.724C186.994 301.439 191.192 300.625 195.441 300.298C201.452 299.947 207.456 301.061 213.307 302.472C220.501 304.249 227.618 306.599 233.995 310.36C237.095 312.214 240.151 314.502 241.837 317.752C242.51 318.894 242.771 320.232 242.577 321.543V321.546Z" fill="black"/>
<path d="M259.688 237.989L259.581 238.264C257.872 242.696 254.729 246.442 252.715 250.764C250.175 256.234 249.549 262.364 248.985 268.378C248.354 273.517 248.16 278.7 248.405 283.871C249.381 296.595 255.599 308.663 257.262 321.144C257.672 324.025 257.776 326.941 257.575 329.844C257.586 331.706 256.991 333.521 255.881 335.016C254.66 336.374 252.288 336.908 250.976 335.603C251.563 334.482 252.158 333.368 252.753 332.246C249.267 329.538 244.018 331.483 239.945 329.79C238.218 328.897 236.625 327.765 235.215 326.426C231.785 323.637 227.833 321.562 223.59 320.323C219.347 319.084 214.899 318.705 210.507 319.209C208.02 319.514 205.533 320.094 203.046 319.865C198.019 319.4 193.946 315.791 189.467 313.48C184.372 310.966 178.643 310.03 173.013 310.793C167.383 311.555 162.109 313.981 157.867 317.76C156.799 318.752 155.367 319.911 154.053 319.286C153.546 318.976 153.137 318.529 152.871 317.997C147.871 309.461 151.551 298.453 156.891 290.138C162.231 281.823 169.303 274.156 171.5 264.522C171.817 263.363 171.913 262.155 171.782 260.96C171.441 259.619 171.013 258.301 170.5 257.016C169.829 254.666 170.141 252.18 170.332 249.746C171.133 239.029 169.35 228.277 165.132 218.393C163.911 215.548 162.462 212.664 162.462 209.575C162.462 204.708 165.948 200.675 168.832 196.759C172.15 192.259 174.932 187.277 179.138 183.577C183.12 180.06 188.887 177.909 193.815 179.694C202.188 177.661 210.807 176.821 219.415 177.199C222.39 177.336 225.464 177.649 228.073 179.091C230.865 180.617 232.873 183.332 235.618 184.957C237.707 186.007 239.881 186.877 242.118 187.557C248.142 189.91 253.114 194.358 256.122 200.083C259.173 205.995 259.936 212.792 260.608 219.413C261.244 225.646 261.854 232.125 259.688 237.989Z" fill="#6C63FF"/>
<path opacity="0.1" d="M248.405 283.867C249.381 296.591 255.599 308.659 257.262 321.14C253.936 318.325 249.306 315.495 248.688 312.222C248.001 308.682 245.804 304.044 245.438 300.467C245.072 296.89 247.582 292.518 244.95 290.062C243.668 288.862 247.078 289.2 245.827 287.972C243.012 285.233 242.318 281.015 242.142 277.101C241.842 270.174 242.722 263.171 241.448 256.359C240.685 252.159 239.091 248.151 237.817 244.07C236.337 239.317 235.269 234.451 234.201 229.576C233.15 225.242 232.385 220.844 231.912 216.409C231.584 212.595 231.737 208.552 233.438 205.073C235.139 201.594 238.58 198.773 242.438 198.825C255.345 198.993 253.118 216.492 255.956 224.579C257.093 227.798 258.626 230.911 259.244 234.267C259.469 235.583 259.592 236.914 259.61 238.249C257.901 242.681 254.758 246.427 252.744 250.749C250.204 256.219 249.578 262.349 249.014 268.363C248.359 273.503 248.155 278.691 248.405 283.867Z" fill="black"/>
<path d="M256.796 224.38C257.933 227.599 259.466 230.712 260.084 234.068C261.114 239.69 259.519 245.668 261.251 251.11C261.702 252.273 262.079 253.463 262.38 254.673C262.513 256.426 262.498 258.187 262.334 259.937C262.501 262.772 263.069 265.568 264.02 268.244C266.702 277.499 268.477 286.992 269.32 296.591C269.446 299.171 269.853 301.729 270.533 304.22C270.853 305.064 271.128 305.925 271.357 306.798C271.562 307.964 271.611 309.151 271.502 310.33C271.296 314.068 270.876 317.821 271.296 321.544C271.716 325.267 273.073 329.044 275.873 331.537C273.373 332.079 270.724 332.62 268.283 331.819C264.85 330.698 262.791 327.242 261.044 324.099C258.832 320.086 250.425 316.471 249.556 311.962C248.877 308.43 246.68 303.792 246.314 300.207C245.948 296.622 248.45 292.266 245.814 289.807C244.54 288.607 247.95 288.937 246.691 287.717C243.884 284.978 243.191 280.76 243.014 276.839C242.714 269.92 243.586 262.917 242.32 256.105C241.557 251.905 239.963 247.897 238.689 243.805C237.209 239.06 236.141 234.193 235.073 229.311C234.019 224.978 233.254 220.579 232.784 216.144C232.456 212.33 232.601 208.279 234.31 204.801C236.019 201.323 239.459 198.508 243.31 198.553C256.17 198.787 253.958 216.294 256.796 224.38Z" fill="#6C63FF"/>
<path opacity="0.1" d="M220.012 227.363C221.217 228.774 222.766 230.323 224.589 230.048C224.45 230.267 224.232 230.423 223.979 230.483C223.727 230.543 223.461 230.502 223.239 230.368C222.801 230.078 222.45 229.674 222.224 229.2L219.615 224.8C219.272 224.228 216.907 220.894 216.327 222.817C216.099 223.632 219.425 226.676 220.012 227.363Z" fill="black"/>
<path opacity="0.1" d="M218.608 238.34C218.533 236.902 217.928 235.543 216.908 234.526C215.991 233.694 214.921 233.049 213.757 232.626C210.814 231.317 207.626 230.647 204.405 230.658C205.534 232.306 209.158 233.29 210.973 234.22C213.546 235.547 216.091 236.921 218.608 238.34Z" fill="black"/>
<path opacity="0.1" d="M226.732 269.586C226.206 273.492 223.009 276.452 219.775 278.74C216.541 281.028 212.909 282.997 210.796 286.307C209.331 288.596 208.675 291.25 207.432 293.638C206.059 296.27 204.007 298.482 202.367 300.954C200.727 303.426 199.445 306.378 199.949 309.307C199.956 309.442 199.992 309.573 200.052 309.693C200.112 309.814 200.197 309.921 200.3 310.007C200.457 310.073 200.629 310.098 200.798 310.08C200.968 310.061 201.13 309.999 201.269 309.9C204.595 308.161 205.907 304.186 207.303 300.746C208.768 297.273 210.418 293.882 212.246 290.585C213.07 289.059 213.978 287.396 215.511 286.55C216.561 286.113 217.636 285.738 218.73 285.429C220.282 284.717 221.644 283.648 222.704 282.309C226.867 277.34 229.04 271.005 228.804 264.527C228.758 263.161 228.682 256.586 226.63 258.615C224.578 260.644 227.083 266.931 226.732 269.586Z" fill="black"/>
<path d="M231.763 119.787C238.323 122.648 243.968 128.941 243.763 136.074C243.588 143.565 237.317 150.621 239.476 157.8C240.727 161.965 244.496 164.757 247.476 167.923C258.835 179.945 258.812 200.931 247.415 212.931C243.052 217.508 237.445 220.765 232.829 225.137C216.558 240.47 215.863 266.994 224.575 287.583C217.9 289.027 211.097 289.794 204.268 289.872C201.068 289.872 197.158 289.33 195.999 286.348C194.931 283.594 196.762 279.871 194.656 277.835C193.664 276.881 192.177 276.752 190.842 276.535C182.252 275.147 175.204 268.289 171.985 260.21C168.766 252.131 168.934 243.038 170.78 234.54C172.092 228.399 174.144 221.64 171.1 216.148C167.286 209.237 156.316 206.323 156.484 198.42C156.621 191.943 164.257 188.793 168.59 183.979C176.585 175.115 172.778 161.361 172.763 149.415C172.763 138.903 176.44 128.055 184.263 121.052C195.906 110.541 218.326 113.951 231.763 119.787Z" fill="#A26565"/>
<g opacity="0.1">
<path d="M172.354 208.307C169.005 202.265 160.21 199.275 158.165 193.332C157.142 194.719 156.567 196.385 156.517 198.107C156.349 206.007 167.304 208.924 171.133 215.843C172.391 218.292 172.92 221.051 172.659 223.792C173.86 218.482 174.921 212.945 172.354 208.307Z" fill="black"/>
<path d="M240.35 148.019C241.723 144.019 243.714 139.971 243.813 135.813C243.827 135.363 243.814 134.912 243.775 134.463C242.242 139.055 239.892 143.51 240.35 148.019Z" fill="black"/>
<path d="M173.661 169.355C176.285 161.063 174.02 150.78 174.012 141.58C174.012 140.466 174.058 139.345 174.142 138.231C173.238 141.787 172.782 145.442 172.784 149.111C172.799 155.677 173.951 162.802 173.661 169.355Z" fill="black"/>
<path d="M248.687 205.125C244.324 209.702 238.717 212.959 234.101 217.331C225.862 225.089 221.628 235.716 220.568 246.983C222.394 238.554 226.679 230.855 232.88 224.861C237.457 220.513 243.102 217.271 247.466 212.655C252.657 206.998 255.671 199.683 255.972 192.012C254.655 196.914 252.153 201.417 248.687 205.125Z" fill="black"/>
<path d="M205.541 282.043C202.341 282.043 198.431 281.494 197.272 278.511C196.204 275.765 198.035 272.042 195.929 269.998C194.937 269.044 193.442 268.915 192.115 268.698C183.533 267.317 176.484 260.452 173.265 252.381C171.022 246.35 170.238 239.873 170.976 233.481C170.915 233.733 170.862 233.981 170.808 234.244C168.992 242.744 168.802 251.844 172.013 259.921C175.224 267.998 182.281 274.857 190.863 276.238C192.221 276.459 193.716 276.597 194.677 277.538C196.805 279.582 194.952 283.305 196.02 286.051C197.18 289.034 201.093 289.621 204.289 289.583C211.118 289.504 217.921 288.737 224.596 287.294C223.655 285.069 222.832 282.795 222.132 280.482C216.654 281.457 211.105 281.979 205.541 282.043Z" fill="black"/>
</g>
<path opacity="0.1" d="M230.523 248.776C232.407 250.195 234.452 244.786 233.284 243.436C232.972 243.787 230.233 248.578 230.523 248.776Z" fill="black"/>
<path opacity="0.1" d="M238.557 346.679C240.777 345.916 243.134 345.153 244.583 343.322C245.783 341.85 246.765 336.006 244.232 338.806C242.081 341.209 241.067 344.375 238.557 346.679Z" fill="black"/>
<path opacity="0.1" d="M261.159 340.554C261.016 342.382 260.304 344.119 259.122 345.52C258.886 345.764 258.359 345.92 258.29 345.589C259.713 344.831 261.035 343.899 262.226 342.812C264.804 340.257 265.155 333.963 261.226 332.292C261.19 335.053 261.579 337.746 261.159 340.554Z" fill="black"/>
<path d="M288.297 329.21C288.297 329.21 266.647 320.704 258.821 321.582C250.995 322.46 267.685 334.794 267.685 334.794L277.663 341.522C277.663 341.522 283.763 339.233 284.17 339.058C284.577 338.883 288.297 329.21 288.297 329.21Z" fill="#454B69"/>
<path d="M139.333 237.958C139.333 237.958 155.597 228.529 177.063 240.247C198.529 251.965 202.107 320.918 202.107 320.918C202.107 320.918 193.327 391.168 227.182 375.538C227.182 375.538 288.972 356.352 295.159 360.579C295.159 360.579 301.018 360.579 289.308 363.179C277.598 365.779 232.362 380.114 232.362 380.114C232.362 380.114 217.738 385.225 211.544 380.114C205.35 375.003 187.797 380.77 185.516 345.633C184.007 323.491 181.292 301.448 177.384 279.601L171.35 261.712L139.333 237.958Z" fill="#565661"/>
<path d="M137.381 346.603C137.381 346.603 144.536 275.369 132.804 249.668C122.597 227.268 162.067 237.745 172.365 240.796C173.959 241.273 175.349 242.266 176.317 243.619C182.417 252.201 204.317 286.598 197.86 332.619C197.86 332.619 195.26 373.607 211.523 380.106L161.412 363.964C157.346 362.652 153.219 361.564 149.054 360.615C143.743 359.411 135.092 355.986 137.381 346.603Z" fill="white"/>
<path d="M493.789 479.589H500.296L504.56 392.137L504.85 387.163L499.319 385.218L498.953 390.504L493.789 479.589Z" fill="#565661"/>
<path opacity="0.1" d="M498.953 390.505L504.56 392.138L504.85 387.164L499.319 385.219L498.953 390.505Z" fill="black"/>
<path d="M439.459 445.818C439.299 447.016 438.992 448.189 438.544 449.312C438.082 450.778 437.089 452.018 435.76 452.791C434.867 453.16 433.911 453.349 432.945 453.348C429.352 453.562 425.553 453.508 422.464 451.677C421.148 450.828 419.941 449.821 418.871 448.677C411.928 441.779 405.618 434.273 400.014 426.249C399.076 424.899 398.107 423.304 398.526 421.672C405.785 419.659 412.677 416.506 418.946 412.33C419.811 411.666 420.78 411.151 421.814 410.804C423.584 410.425 425.407 410.357 427.2 410.604C428.932 410.886 429.008 410.94 429.672 412.893C430.772 416.193 430.587 419.759 431.823 423.062C432.607 424.887 433.563 426.635 434.676 428.28C437.865 433.613 440.313 439.906 439.459 445.818Z" fill="#A26565"/>
<path opacity="0.1" d="M439.459 445.82C439.299 447.018 438.992 448.191 438.544 449.314C438.082 450.78 437.089 452.02 435.76 452.793C434.867 453.162 433.911 453.351 432.945 453.35C429.352 453.564 425.553 453.51 422.464 451.679C421.148 450.83 419.941 449.823 418.871 448.679C411.928 441.781 405.618 434.275 400.014 426.251C399.076 424.901 398.107 423.306 398.526 421.674C400.894 421.018 403.227 420.239 405.514 419.34L405.628 419.424C407.875 421.227 409.802 423.396 411.328 425.84L416.668 433.354C417.62 434.83 418.744 436.187 420.017 437.397C421.595 438.663 423.338 439.71 425.197 440.509C427.707 441.722 430.217 442.935 432.825 443.909C434.508 444.59 437.361 444.857 439.459 445.82Z" fill="black"/>
<path d="M444.387 364.354C443.861 365.622 443.223 366.839 442.48 367.993C435.39 379.899 429.92 392.698 426.216 406.051C425.163 405.814 424.568 407.251 424.576 408.34C424.584 409.429 424.576 410.804 423.569 411.201C423.269 411.315 422.936 411.315 422.646 411.445C422.005 411.735 421.822 412.551 421.731 413.253L420.831 419.859C420.518 422.148 420.244 424.627 421.365 426.648C422.139 427.849 423.142 428.886 424.317 429.699L439.208 441.447C439.818 441.928 440.573 442.439 441.308 442.172C442.979 441.562 441.499 438.572 442.834 437.359C443.719 436.527 445.123 437.153 446.351 437.054C447.142 436.916 447.873 436.542 448.447 435.981C449.022 435.42 449.413 434.698 449.57 433.911C449.854 432.334 449.882 430.722 449.654 429.136C449.553 428.412 449.637 427.675 449.898 426.992C450.353 426.269 450.979 425.669 451.721 425.245C454.305 423.358 456.386 420.867 457.784 417.989C459.182 415.111 459.853 411.934 459.738 408.737C459.617 407.764 459.653 406.777 459.845 405.815C460.155 404.934 460.623 404.117 461.226 403.404C466.635 396.088 471.143 388.147 475.621 380.221C478.199 375.644 480.821 370.998 481.721 365.841C481.799 365.649 481.831 365.441 481.815 365.235C481.799 365.028 481.735 364.828 481.629 364.65C481.522 364.473 481.375 364.322 481.2 364.211C481.026 364.1 480.827 364.031 480.621 364.01C478.387 363.312 476.108 362.767 473.801 362.377C466.79 360.958 460.024 358.769 453.201 356.663C446.378 354.557 446.439 358.846 444.387 364.354Z" fill="#454B69"/>
<path d="M412.142 498.088L422.883 499.388L472.323 387.166L485.657 386.19L509.084 393.025L513.631 526.637H524.364L520.142 388.139L545.842 388.795L591.704 502.962H601.461L553.222 369.534L551.368 364.392L479.478 361.928L461.559 371.975L461.33 372.555L412.142 498.088Z" fill="#565661"/>
<path opacity="0.1" d="M461.33 372.554C476.778 377.207 492.813 382.288 492.813 382.288C492.813 382.288 507.437 387.388 513.631 382.288C514.412 381.678 515.285 381.197 516.217 380.861C515.413 381.435 514.545 381.914 513.631 382.288L553.223 369.526L551.39 364.392L479.5 361.928L461.581 371.975L461.33 372.554Z" fill="black"/>
<path d="M534.448 350.409L505.178 343.902C505.178 343.902 435.241 356.916 430.038 362.119C430.038 362.119 485.985 373.501 492.164 377.376C498.343 381.251 535.104 385.538 534.448 350.409Z" fill="white"/>
<path d="M425.835 454.98C424.073 458.337 419.735 459.28 415.918 459.336C410.623 459.401 405.363 458.462 400.418 456.567C397.66 455.335 394.841 454.243 391.973 453.294C387.632 452.104 382.819 452.203 379.005 449.815C376.982 448.466 375.31 446.654 374.13 444.528C373.909 444.154 373.695 443.765 373.497 443.369C371.555 439.868 370.966 435.776 371.842 431.869C372.857 428.04 376.542 423.821 380.813 423.882C385.886 423.958 391.935 426.361 396.833 427.605C402.933 429.131 409.039 430.893 414.433 434.12C419.044 436.752 422.75 440.717 425.067 445.494C425.476 446.412 425.813 447.361 426.074 448.332C426.857 450.496 426.771 452.878 425.835 454.98Z" fill="#A26565"/>
<path opacity="0.1" d="M425.835 454.979C424.073 458.336 419.735 459.279 415.918 459.335C410.623 459.4 405.363 458.461 400.418 456.566C397.66 455.334 394.841 454.242 391.973 453.293C387.632 452.103 382.819 452.202 379.005 449.814C376.982 448.465 375.311 446.653 374.13 444.527C373.909 444.153 373.695 443.764 373.497 443.368C374.26 443.429 374.962 443.505 375.343 443.543C380.027 443.993 384.497 445.702 388.967 446.991C395.173 448.784 401.581 449.783 408.038 449.966C412.615 450.096 417.39 449.76 421.388 447.525C422.582 446.772 423.819 446.092 425.095 445.488C425.504 446.406 425.841 447.355 426.102 448.326C426.862 450.497 426.767 452.876 425.835 454.979Z" fill="black"/>
<path d="M458.614 309.933C448.697 308.308 438.597 307.911 428.543 307.515L416.243 307.027C415.368 306.926 414.482 307.033 413.657 307.34C412.946 307.797 412.27 308.307 411.635 308.866C410.319 309.584 408.833 309.934 407.335 309.881C396.782 310.462 386.287 311.824 375.935 313.955C370.595 315.046 365.049 316.472 361.035 320.155C356.794 324.055 354.935 329.996 354.787 335.748C354.639 341.5 356.152 347.148 357.747 352.675C359.777 359.324 360.898 366.216 361.081 373.165C361.009 375.093 361.083 377.023 361.302 378.94C361.657 380.77 362.197 382.559 362.912 384.28L368.527 399.27C369.027 400.582 369.511 401.887 370.053 403.17C370.595 404.453 371.113 405.459 371.579 406.664C372.266 408.312 372.807 410.021 373.349 411.722L377.087 423.462L377.575 424.988C378.925 429.214 380.306 433.517 382.854 437.148C385.402 440.779 389.346 443.708 393.778 443.93C395.208 443.877 396.64 443.915 398.065 444.045C399.28 444.342 400.459 444.769 401.582 445.319C404.909 446.701 408.48 447.399 412.082 447.371C415.4 447.371 419.082 446.448 420.882 443.656C421.752 442.05 422.272 440.278 422.408 438.456C422.889 434.84 423.354 431.064 422.126 427.631C421.363 425.579 420.082 423.817 419.197 421.795C417.961 419.041 417.557 415.995 416.756 413.095C415.025 406.836 411.5 401.221 406.614 396.943C404.879 390.073 403.605 383.096 402.8 376.056C402.688 374.497 402.378 372.959 401.877 371.479C400.984 369.19 399.177 367.337 398.421 365.002C397.712 362.835 397.921 360.333 396.636 358.464C407.369 361.416 417.996 360.753 429.136 360.577C432.705 360.589 436.271 360.385 439.816 359.967C441.467 359.664 443.138 359.486 444.816 359.433C448.264 359.433 451.498 360.959 454.664 362.301C463.612 366.115 473.041 369.113 482.764 369.525C492.795 369.945 502.712 367.587 512.515 365.253C516.825 364.223 521.303 363.109 524.72 360.279C528.137 357.449 530.06 352.345 527.954 348.463C526.354 345.541 523.034 344.107 519.937 342.887C511.363 339.5 502.743 336.197 494.481 332.1C481.873 325.948 472.437 312.221 458.614 309.933Z" fill="#454B69"/>
<path d="M440.932 275.422C439.732 278.016 437.72 280.136 436.232 282.577C433.743 286.595 432.922 291.426 433.943 296.041C434.479 298.322 435.532 300.45 437.02 302.26C438.508 304.071 440.391 305.516 442.525 306.484C444.43 307.243 446.433 307.726 448.475 307.918C451.16 308.246 454.021 308.318 456.393 307.018C458.169 305.953 459.626 304.43 460.612 302.609C462.534 299.1 463.975 295.349 464.899 291.456C466.875 284.346 468.561 277.056 468.317 269.677C468.233 267.137 467.73 264.277 465.624 262.811C464.537 262.183 463.332 261.788 462.084 261.651L452.022 259.851C450.077 259.5 446.682 258.074 444.996 259.477C443.31 260.88 443.18 265.031 442.891 266.977C442.437 269.853 442.152 272.775 440.932 275.422Z" fill="#A1616A"/>
<path d="M563.238 245.915L560.606 267.976C560.061 271.911 559.748 275.874 559.668 279.846C559.668 282.058 559.737 284.515 558.268 286.17C557.554 286.922 556.65 287.468 555.652 287.749C552.452 288.741 548.969 287.856 545.918 286.49C544.133 285.727 542.31 284.621 541.501 282.844C541.031 281.612 540.836 280.292 540.929 278.976C540.929 265.817 542.173 252.093 549.046 240.876C549.632 239.776 550.459 238.821 551.464 238.084C553.371 236.863 555.864 237.207 558.024 237.87C559.351 238.27 562.937 238.724 563.783 239.907C564.629 241.09 563.421 244.397 563.238 245.915Z" fill="#A1616A"/>
<path d="M493.415 166.136C508.582 166.136 520.877 153.841 520.877 138.674C520.877 123.507 508.582 111.212 493.415 111.212C478.248 111.212 465.953 123.507 465.953 138.674C465.953 153.841 478.248 166.136 493.415 166.136Z" fill="#A1616A"/>
<path d="M486.069 179.6C485.97 181.736 485.389 183.821 484.369 185.7C498.39 183.567 512.376 181.187 526.325 178.56C521.696 176.181 518.197 172.067 516.591 167.117C515.832 164.463 515.417 161.722 515.355 158.962C515.134 154.585 515.218 150.198 515.607 145.833C510.725 146.344 506.102 148.175 501.449 149.746C496.77 151.327 492.011 152.659 487.191 153.736C484.864 154.255 482.522 154.697 480.173 155.109C477.427 155.597 476.107 155.59 478.014 158C483.132 164.447 486.783 170.988 486.069 179.6Z" fill="#A1616A"/>
<path d="M494.506 175.932C490.882 176.474 487.084 177.084 484.192 179.327C483.092 180.272 482.045 181.278 481.057 182.34C475.313 187.916 467.204 190.159 460.231 194.095C459.094 194.657 458.086 195.45 457.271 196.422C456.508 197.482 456.119 198.833 455.318 199.885C454.387 201.106 452.918 201.868 452.19 203.219C451.462 204.57 451.626 206.003 451.549 207.438C451.374 210.589 450.184 213.579 449.26 216.592C445.029 231.017 447.347 247.105 440.939 260.725C441.234 261.51 441.684 262.227 442.264 262.833C442.843 263.438 443.54 263.92 444.311 264.249C445.922 264.83 447.604 265.192 449.311 265.325L463.511 267.087C465.54 267.339 467.691 267.575 469.545 266.728C467.849 271.403 466.65 276.243 465.967 281.169C465.623 284.18 465.088 287.166 464.367 290.11C462.414 296.823 457.501 302.41 451.681 306.237C450.948 306.621 450.329 307.192 449.888 307.892C449.125 309.418 450.254 311.126 451.055 312.622C453.382 316.955 453.061 322.158 453.031 327.07C453.001 331.982 453.496 337.376 456.931 340.9C458.96 342.983 461.737 344.112 464.437 345.187L486.643 354.059C490.308 355.619 494.087 356.895 497.948 357.873C503.799 359.208 509.879 359.155 515.882 358.895C519.849 358.727 523.81 358.473 527.767 358.132C529.341 358.127 530.887 357.72 532.26 356.95C533.442 356.018 534.351 354.785 534.892 353.38C537.981 346.659 539.019 338.817 543.81 333.187C547.098 329.319 552.201 326.23 552.575 321.172C552.75 318.655 551.629 316.206 551.614 313.681C551.614 310.581 553.239 307.624 553.14 304.527C552.934 299.485 548.182 295.64 547.426 290.651C545.504 278.003 551.926 265.37 555.871 253.203C556.58 251.029 557.496 248.626 559.586 247.695C561.676 246.764 564.621 247.253 565.368 245.195C567.252 240.023 567.702 233.958 567.458 228.458C567.321 225.277 566.192 222.165 566.321 218.976C566.413 216.733 567.13 214.552 567.321 212.316C567.611 208.937 566.721 205.58 565.795 202.316C565.528 201.15 565.129 200.019 564.605 198.944C564.042 197.969 563.377 197.056 562.622 196.221L558.907 191.804C557.168 189.737 555.329 187.593 552.807 186.548C551.991 184.526 549.382 183.13 547.513 182.017C545.629 180.948 543.683 179.992 541.685 179.156L520.676 169.88C519.891 169.484 519.049 169.212 518.181 169.071C516.902 169.028 515.632 169.29 514.474 169.834C508.062 172.377 501.371 174.909 494.506 175.932Z" fill="#6C63FF"/>
<path d="M472.254 143.449C471.445 140.604 469.378 138.149 469.065 135.203C468.783 132.586 469.935 130.054 470.591 127.503C471.247 124.952 471.224 121.843 469.203 120.149C468.867 119.859 468.44 119.6 468.318 119.173C468.074 118.41 468.844 117.716 469.081 116.945C469.516 115.419 467.632 113.733 468.318 112.269C468.707 111.469 469.683 111.186 470.538 110.934C473.803 109.965 477.114 107.814 477.823 104.48C480.379 105.548 483.102 103.542 485.062 101.596C487.022 99.65 489.433 97.431 492.134 98.018L491.534 99.246C495.698 97.7342 500.252 97.6831 504.449 99.101H503.165C506.846 99.1635 510.416 100.371 513.379 102.557C513.051 102.557 513.02 103.045 513.15 103.32C514.218 105.814 516.964 107.134 519.611 107.752C521.205 108.133 522.937 108.408 524.104 109.552C525.271 110.696 525.294 113.084 523.753 113.633C526.896 114.856 529.871 116.471 532.61 118.439C533.373 118.996 534.235 119.751 534.136 120.728C534.027 121.218 533.868 121.696 533.663 122.155C533.511 122.969 533.566 123.809 533.823 124.596L534.67 128.09C535.601 131.973 536.333 136.649 533.503 139.464C534.563 141.443 534.956 143.712 534.625 145.932C534.294 148.153 533.256 150.208 531.665 151.792C531.889 152.474 531.967 153.195 531.892 153.908C531.818 154.622 531.593 155.312 531.233 155.932C530.872 156.553 530.385 157.09 529.802 157.508C529.219 157.927 528.554 158.217 527.851 158.36C528.789 159.825 527.927 161.915 526.451 162.83C524.888 163.622 523.112 163.889 521.386 163.593C519.672 163.288 517.928 163.19 516.191 163.303C513.681 163.692 511.225 165.403 508.807 164.638C507.906 164.253 507.04 163.788 506.221 163.25C504.454 162.49 502.59 161.976 500.683 161.724C497.484 161.037 494.446 159.742 491.735 157.91C489.938 156.83 488.505 155.235 487.623 153.333C485.945 149.092 488.767 143.533 485.8 140.075C484.872 139.13 483.62 138.572 482.296 138.512C480.973 138.453 479.676 138.897 478.667 139.755C477.698 140.617 477.567 142.433 476.562 143.081C475.158 143.436 473.706 143.56 472.262 143.447L472.254 143.449Z" fill="#464353"/>
<path opacity="0.1" d="M434.936 362.187C433.852 361.329 432.916 360.298 432.167 359.136C431.415 357.968 431.117 356.565 431.328 355.192C431.031 356.928 431.145 358.71 431.66 360.394C432.175 362.079 433.078 363.619 434.295 364.892C436.21 366.853 439.803 368.775 442.602 368.104C442.206 365.862 436.713 363.698 434.936 362.187Z" fill="black"/>
<path d="M585.841 239.484C585.841 239.484 569.577 230.055 548.111 241.773C526.645 253.491 523.067 322.444 523.067 322.444C523.067 322.444 531.847 392.694 497.992 377.064C497.992 377.064 436.202 357.878 430.015 362.105C430.015 362.105 424.156 362.105 435.866 364.705C447.576 367.305 492.812 381.64 492.812 381.64C492.812 381.64 507.436 386.751 513.63 381.64C519.824 376.529 537.377 382.296 539.658 347.159C541.167 325.017 543.882 302.974 547.79 281.127L553.824 263.238L585.841 239.484Z" fill="#565661"/>
<path d="M587.794 348.129C587.794 348.129 580.638 276.895 592.371 251.194C602.578 228.794 563.108 239.271 552.81 242.322C551.216 242.798 549.826 243.791 548.858 245.144C542.758 253.726 520.858 288.123 527.315 334.144C527.315 334.144 529.915 375.132 513.653 381.631L563.764 365.489C567.83 364.177 571.957 363.089 576.122 362.14C581.432 360.937 590.082 357.512 587.794 348.129Z" fill="white"/>
<path opacity="0.1" d="M719.163 486.646C760.215 486.646 793.494 481.301 793.494 474.707C793.494 468.113 760.215 462.768 719.163 462.768C678.111 462.768 644.832 468.113 644.832 474.707C644.832 481.301 678.111 486.646 719.163 486.646Z" fill="#6C63FF"/>
<path d="M721.551 245.999H716.768V353.69H721.551V245.999Z" fill="#535461"/>
<path d="M751.615 353.361L751.315 358.213L750.888 365.079L750.713 367.932L750.293 374.798L750.11 377.651L749.683 384.517L744.862 462.38C744.64 465.721 743.156 468.852 740.712 471.14C738.267 473.428 735.045 474.702 731.697 474.703H706.622C703.267 474.701 700.039 473.421 697.595 471.122C695.152 468.823 693.677 465.679 693.471 462.33L688.635 384.459L688.215 377.593L688.04 374.74L687.605 367.874L687.43 365.021L687.01 358.155L686.705 353.303C686.652 352.373 686.789 351.442 687.108 350.567C687.426 349.691 687.919 348.89 688.557 348.211C689.195 347.532 689.965 346.991 690.819 346.619C691.673 346.247 692.594 346.053 693.525 346.048H744.803C745.739 346.053 746.663 346.25 747.52 346.626C748.377 347.001 749.148 347.548 749.786 348.232C750.424 348.917 750.915 349.724 751.229 350.605C751.544 351.486 751.675 352.422 751.615 353.356V353.361Z" fill="#565661"/>
<path d="M751.317 358.213L750.89 365.056H687.436L687.009 358.213H751.317Z" fill="#9D9CB5"/>
<path d="M750.714 367.916L750.294 374.766H688.039L687.612 367.916H750.714Z" fill="#9D9CB5"/>
<path d="M750.115 377.62L749.688 384.463H688.642L688.215 377.62H750.115Z" fill="#9D9CB5"/>
<path d="M679.697 286.361C707.556 306.515 719.159 338.036 719.159 338.036C719.159 338.036 685.597 336.882 657.731 316.729C629.865 296.576 618.277 265.062 618.277 265.062C618.277 265.062 651.85 266.214 679.697 286.361Z" fill="#6C63FF"/>
<path d="M618.277 265.062C618.277 265.062 653.116 284.4 664.299 300.412C675.482 316.424 719.163 338.035 719.163 338.035" stroke="#535461" stroke-width="2" stroke-miterlimit="10"/>
<path d="M697.682 245.762C712.847 256.724 719.164 273.888 719.164 273.888C719.164 273.888 700.856 273.255 685.729 262.288C670.602 251.321 664.292 234.167 664.292 234.167C664.292 234.167 682.524 234.793 697.682 245.762Z" fill="#6C63FF"/>
<path d="M664.292 234.167C664.292 234.167 683.256 244.694 689.336 253.406C695.416 262.118 719.201 273.888 719.201 273.888" stroke="#535461" stroke-width="2" stroke-miterlimit="10"/>
<path d="M741.194 273.011C723.778 292.151 720.094 317.164 720.094 317.164C720.094 317.164 744.65 311.138 762.05 291.99C779.45 272.842 783.15 247.837 783.15 247.837C783.15 247.837 758.61 253.871 741.194 273.011Z" fill="#6C63FF"/>
<path d="M783.166 247.845C783.166 247.845 760.479 267.465 754.712 280.983C748.945 294.501 720.094 317.165 720.094 317.165" stroke="#535461" stroke-width="2" stroke-miterlimit="10"/>
<path d="M388.86 226.935V228.674H337.284V227.266C338.698 226.735 340.037 226.022 341.266 225.145C343.457 223.577 345.241 221.508 346.473 219.112C347.704 216.716 348.346 214.06 348.345 211.366C348.346 209.958 348.169 208.556 347.819 207.193C347.196 204.74 346.031 202.457 344.41 200.513C342.79 198.568 340.755 197.011 338.454 195.956H388.512C386.211 197.011 384.175 198.568 382.554 200.512C380.933 202.457 379.768 204.739 379.144 207.193C378.796 208.557 378.622 209.959 378.625 211.366C378.623 214.059 379.264 216.714 380.494 219.11C381.723 221.506 383.507 223.574 385.696 225.143C386.686 225.849 387.747 226.45 388.862 226.936L388.86 226.935Z" fill="#DFE6F5"/>
<path opacity="0.1" d="M388.509 195.956C386.208 197.011 384.172 198.568 382.551 200.512C380.93 202.457 379.765 204.739 379.141 207.193H347.819C347.195 204.739 346.03 202.457 344.409 200.512C342.788 198.568 340.752 197.011 338.451 195.956H388.509Z" fill="black"/>
<path d="M278.232 187.069V196.864C278.232 202.264 282.184 206.651 287.066 206.651H438.803C443.685 206.651 447.644 202.265 447.644 196.864V187.069H278.232Z" fill="#DFE6F5"/>
<path opacity="0.1" d="M388.86 226.936V228.675H337.284V227.264C338.698 226.734 340.037 226.02 341.266 225.143H385.694C386.684 225.849 387.745 226.45 388.86 226.936Z" fill="black"/>
<path d="M403.32 225.684H322.824C321.398 225.684 320.242 226.84 320.242 228.266C320.242 229.692 321.398 230.848 322.824 230.848H403.32C404.746 230.848 405.902 229.692 405.902 228.266C405.902 226.84 404.746 225.684 403.32 225.684Z" fill="#DFE6F5"/>
<path d="M447.644 79.791C447.644 78.6303 447.415 77.481 446.971 76.4088C446.527 75.3365 445.875 74.3623 445.054 73.5419C444.233 72.7215 443.258 72.071 442.186 71.6274C441.113 71.1839 439.964 70.9561 438.803 70.957H287.066C285.906 70.9559 284.756 71.1837 283.684 71.6273C282.612 72.0709 281.638 72.7216 280.817 73.5421C279.997 74.3626 279.346 75.3369 278.902 76.4091C278.459 77.4814 278.231 78.6306 278.232 79.791V188.977H447.644V79.791Z" fill="#474157"/>
<path d="M443.022 83.734V177.564C443.023 178.136 442.911 178.702 442.693 179.23C442.475 179.759 442.155 180.239 441.751 180.644C441.348 181.048 440.868 181.369 440.34 181.588C439.812 181.807 439.246 181.92 438.674 181.92H287.203C286.631 181.92 286.065 181.807 285.537 181.588C285.009 181.369 284.53 181.048 284.126 180.644C283.722 180.239 283.402 179.759 283.184 179.23C282.966 178.702 282.854 178.136 282.855 177.564V83.734C282.851 82.9706 283.052 82.2201 283.435 81.56C283.817 80.8986 284.366 80.3495 285.028 79.9679C285.689 79.5863 286.439 79.3856 287.203 79.386H438.675C439.828 79.386 440.934 79.8441 441.75 80.6595C442.565 81.4749 443.023 82.5808 443.023 83.734H443.022Z" fill="#4C4C78"/>
<path d="M362.938 77.205C364.063 77.205 364.975 76.293 364.975 75.168C364.975 74.043 364.063 73.131 362.938 73.131C361.813 73.131 360.901 74.043 360.901 75.168C360.901 76.293 361.813 77.205 362.938 77.205Z" fill="white"/>
<path d="M362.938 202.295C365.714 202.295 367.965 200.044 367.965 197.268C367.965 194.492 365.714 192.241 362.938 192.241C360.162 192.241 357.911 194.492 357.911 197.268C357.911 200.044 360.162 202.295 362.938 202.295Z" fill="white"/>
<path d="M443.021 83.734H282.87C282.87 82.5808 283.328 81.4749 284.143 80.6595C284.959 79.8441 286.065 79.386 287.218 79.386H438.67C439.823 79.386 440.929 79.8441 441.745 80.6595C442.56 81.4749 443.018 82.5808 443.018 83.734H443.021Z" fill="#C8CAD7"/>
<path d="M287.203 82.651C287.806 82.651 288.294 82.1625 288.294 81.56C288.294 80.9575 287.806 80.469 287.203 80.469C286.6 80.469 286.112 80.9575 286.112 81.56C286.112 82.1625 286.6 82.651 287.203 82.651Z" fill="#EDEDF4"/>
<path d="M290.468 82.651C291.071 82.651 291.559 82.1625 291.559 81.56C291.559 80.9575 291.071 80.469 290.468 80.469C289.865 80.469 289.377 80.9575 289.377 81.56C289.377 82.1625 289.865 82.651 290.468 82.651Z" fill="#EDEDF4"/>
<path d="M293.733 82.651C294.336 82.651 294.824 82.1625 294.824 81.56C294.824 80.9575 294.336 80.469 293.733 80.469C293.13 80.469 292.642 80.9575 292.642 81.56C292.642 82.1625 293.13 82.651 293.733 82.651Z" fill="#EDEDF4"/>
<defs>
<linearGradient id="paint0_linear_2_57" x1="400.5" y1="0" x2="400.5" y2="498.807" gradientUnits="userSpaceOnUse">
<stop stop-color="#E2E1FF"/>
<stop offset="1" stop-color="#807CF4"/>
</linearGradient>
<linearGradient id="paint1_linear_2_57" x1="258.771" y1="320.361" x2="260.541" y2="320.361" gradientUnits="userSpaceOnUse">
<stop stop-color="#808080" stop-opacity="0.251"/>
<stop offset="0.54" stop-color="#808080" stop-opacity="0.122"/>
<stop offset="1" stop-color="#808080" stop-opacity="0.102"/>
</linearGradient>
</defs>
</svg>
